<svg xmlns="http://www.w3.org/2000/svg" width="1652.45" height="1430" viewBox="0 0 1652.45 1430"><path d="M769.46,396.49c46.15-29.3,96.78-50.6,149.62-64.62,26.71-7.09,49.54-23.73,101.7-7.09,214.63,68.46,411.75,36.61,498.32-89.84s195.33-251.78,324.07-12.2,152,140.86,128.74,239.58,102.54,249.41,8,291.08-157.81,141.5-94.55,419.9-278.57,326.09-375.12,326.09-480.11-21.07-573,0-266,56.57-302.66-200.76S292.74,821.69,382.63,696.35C444.52,610.07,648.41,473.33,769.46,396.49Z" transform="translate(-364.64 -85.5)" fill="none" stroke="#000" stroke-miterlimit="10" stroke-width="3"/></svg>