<svg xmlns="http://www.w3.org/2000/svg" viewBox="0 0 708.68 376.19"><path d="M1013.84,299c-20.55-20.62-44.75-37.19-70.51-50.62-13.26-6.92-27-13.56-41.2-18.32-15.26-5.11-30.66-5.84-46.57-4-16.51,1.94-32.87,5.17-49.33,7.45q-25.74,3.58-51.63,6-50.48,4.69-101.23,4.93c-60.5.27-124-5.42-181.67,17-11,4.29-21.72,9.8-31,17.23-4.5,3.62-9.16,7.78-12.5,12.53-4.28,6.08-7.74,13-11.27,19.55a391.7,391.7,0,0,0-33.44,83,361.56,361.56,0,0,0-9.09,43.81c-2,14.22-4.38,29.45-2.1,43.77,2.2,13.83,10.63,24.15,20.72,33.31a373.19,373.19,0,0,0,33.84,27.36c24,17.16,50.5,30.72,79.48,37,31.92,6.87,65.16,6.76,97.65,8.24l206.06,9.37c32.93,1.5,65.86,3.36,98.81,4.41,26.18.84,52.87.56,78.47-5.61,24.65-5.94,47.66-18.1,63.68-38.14,16.4-20.53,24.59-46.54,27.61-72.36,6.35-54.35-8.76-110.8-39.77-155.69a224.54,224.54,0,0,0-25-30.19c-.34-.35-.87.18-.53.53,38.41,38.94,61.9,91.81,65.47,146.37,1.76,26.83-1,54.56-10.74,79.75s-27.19,46.08-51.39,58.37c-23.33,11.84-49.92,15.46-75.78,16.34-28.76,1-57.63-1.2-86.35-2.51l-199.71-9.08c-33.07-1.51-66.17-2.67-99.21-4.6-31.37-1.83-62-6.5-90.56-20.18-25.92-12.41-49.31-29.94-70.62-49.09-5.4-4.86-10.65-10-14.65-16.11A46.78,46.78,0,0,1,372.52,477c-1.29-14.94,1.18-30.6,3.55-45.32a372.27,372.27,0,0,1,24.11-84A405.13,405.13,0,0,1,420,306.81c3.49-6.26,6.82-13.05,11.61-18.42a81.77,81.77,0,0,1,13.54-12.07c20.63-14.74,46.23-21.49,70.87-25.83,31.41-5.53,63.12-6,94.92-5.63,32.69.41,65.31.51,98-1.22q48.24-2.55,96.16-9.14c16.64-2.29,33.16-5.52,49.82-7.54s32.47-1.18,48.3,4.29c14.07,4.86,27.7,11.46,40.86,18.38A318,318,0,0,1,980.67,272a253.3,253.3,0,0,1,32.64,27.56A.38.38,0,0,0,1013.84,299Z" transform="translate(-371.37 -225.19)"/></svg>